<svg width="1000px" height="1000px" viewBox="0 0 1000 1000" version="1.1" xmlns="http://www.w3.org/2000/svg" xmlns:xlink="http://www.w3.org/1999/xlink">
    <title>Centre for Entrepreneurship</title>
<path fill="#000000" d="M500,0C223.9,0,0,223.9,0,500s223.9,500,500,500s500-223.9,500-500S776.1,0,500,0z M500,900c-220.9,0-400-179.1-400-400
	s179.1-400,400-400s400,179.1,400,400S720.9,900,500,900z"/>
<polygon fill="#000000" points="500,442.9 500,100 500,100 300,557.1 500,557.1 500,900 500,900 700,442.9 "/>
<path fill="#000000" opacity="0.2" d="M300,557.1L500,100h0c-220.9,0-400,179.1-400,400s179.1,400,400,400h0V557.1H300z"/>
<path fill="#000000" opacity="0.2" d="M900,500c0-220.9-179.1-400-400-400v342.9h200L500,900C720.9,900,900,720.9,900,500z"/>
</svg>
