<svg width="1000" height="415" viewBox="0 0 1000 415" fill="none" xmlns="http://www.w3.org/2000/svg">
<path fill="#A5CF4F" d="M201.7,410.4c73.9,0,119-26.9,160.1-69.6l-44.5-44.9c-33.8,31.4-64.8,50.5-113.3,50.5
	c-75.5,0-130.2-62.3-130.2-139.2v-1.1C73.7,129.2,129,67.4,204,67.4c45.1,0,78.9,19.6,110.5,48.8L359,65.2
	C321.2,29.3,277.3,4,204.5,4C85,4,1,95.5,1,207.2v1.1C1,321.2,86.7,410.4,201.7,410.4"/>
<path class="st0" d="M643.1,102.2h355.4V40.5H643.1V102.2z M643.1,236.4H999v-61.8H643.1V236.4z M643.1,373.9H999v-61.7H643.1V373.9
	z"/>
<path fill="#A5CF4F" d="M549.2,201c0,40.1-27.5,73.6-70.9,73.6c-41.6,0-71.3-33.9-71.3-74.5v-0.9c0-40.6,27.5-74.1,70.4-74.1
	c42.1,0,71.7,34,71.7,75V201z M478.3,78.4c-71.7,0-124.9,55.1-124.9,121.7v0.9c0,66.1,52.7,120.4,124,120.4
	c72.2,0,125.3-55.1,125.3-121.3v-0.9C602.8,132.6,550.1,78.4,478.3,78.4"/>
</svg>
