<svg width="280px" height="325px" viewBox="0 0 280 325" version="1.1" xmlns="http://www.w3.org/2000/svg" xmlns:xlink="http://www.w3.org/1999/xlink">
    <title>International Chambers of Commerce</title>
<path fill="#0064A8" d="M120.1,111.7c-22.4,0-40.6-18.5-40.6-41.2c0-22.7,18.2-41.2,40.6-41.2c22.4,0,40.6,18.5,40.6,41.2
	C160.7,93.2,142.5,111.7,120.1,111.7z M96.1,102.1c6.1,4.8,13.7,7.8,21.9,8.3c-5.8-3.3-10.6-8.4-14.2-14.5
	C101,97.5,98.4,99.6,96.1,102.1z M136.7,95.7c-3.5,6.2-8.4,11.3-14.2,14.6c8.2-0.5,15.8-3.6,21.9-8.4
	C142.1,99.4,139.5,97.4,136.7,95.7z M104.9,95.2c3.6,6.3,8.6,11.4,14.6,14.6V91.3C114.4,91.5,109.4,92.8,104.9,95.2z M120.9,91.3
	v18.4c6.1-3.2,11.1-8.3,14.7-14.7C131.1,92.7,126,91.4,120.9,91.3z M80.8,71.1c0.2,12.1,5.7,23,14.3,30.2c2.4-2.6,5.1-4.8,8.1-6.6
	c-3.7-6.9-5.8-15-5.8-23.6H80.8z M137.3,94.6c3,1.7,5.7,3.9,8.1,6.5c8.5-7.2,13.9-18,14.1-30h-16.3C143,79.7,140.9,87.8,137.3,94.6z
	 M98.6,71.1c0.1,8.4,2.1,16.3,5.7,23c4.7-2.5,9.9-3.9,15.3-4v-19L98.6,71.1z M120.9,90.1c5.4,0.1,10.6,1.5,15.3,3.9
	c3.5-6.6,5.6-14.5,5.6-22.9l-20.9,0V90.1z M143.1,69.8h16.3c-0.2-12-5.7-22.7-14.1-29.9c-2.4,2.6-5.1,4.7-8.1,6.5
	C140.9,53.2,143,61.2,143.1,69.8z M120.9,69.8l20.9,0c-0.1-8.3-2.1-16.2-5.7-22.8c-4.7,2.5-9.9,3.8-15.2,3.9V69.8z M98.6,69.8
	l20.9,0V50.9c-5.4-0.1-10.6-1.5-15.2-4C100.8,53.6,98.8,61.4,98.6,69.8z M80.8,69.8h16.5c0.1-8.6,2.2-16.7,5.9-23.5
	c-3-1.7-5.7-3.9-8.1-6.5C86.6,46.9,81.1,57.7,80.8,69.8z M120.9,31.3v18.3c5.1-0.1,10.2-1.4,14.6-3.7
	C131.9,39.6,126.9,34.5,120.9,31.3z M105,45.8c4.5,2.4,9.4,3.7,14.6,3.8V31.3C113.6,34.5,108.6,39.5,105,45.8z M122.5,30.7
	c5.8,3.3,10.6,8.4,14.2,14.5c2.8-1.6,5.4-3.7,7.7-6.1C138.2,34.3,130.7,31.2,122.5,30.7z M96.2,38.9c2.3,2.5,4.9,4.6,7.7,6.2
	c3.5-6.1,8.3-11.2,14.1-14.5C109.8,31.2,102.3,34.2,96.2,38.9z"/>
<rect x="10.4" y="6.7" fill="#0064A8" width="28.1" height="127.8"/>
<path fill="#0064A8" d="M149.2,98.1c-9,7.7-17.6,12.6-30.9,12.6c-21.9,0-37.1-18.3-37.1-40.2v-0.4c0-21.9,15.5-39.8,37.1-39.8
	c12,0,21.5,4.8,30.8,12.8c3.5-8.8,8.6-16.7,15.1-23.2c-11-9.3-24.7-15.5-45.7-15.5c-39.2,0-66.6,29.8-66.6,66.1v0.4
	c0,36.7,27.9,65.7,65.5,65.7c20.7,0,34.3-6.2,45.9-16.5C157.4,113.8,152.6,106.3,149.2,98.1"/>
<path fill="#0064A8" d="M152.8,70.9v-0.4c0-36.3,27.4-66.1,66.6-66.1c24.1,0,38.5,8,50.4,19.7l-17.9,20.6c-9.9-8.9-19.9-14.4-32.7-14.4
	c-21.5,0-37,17.9-37,39.8v0.4c0,21.9,15.1,40.2,37,40.2c14.6,0,23.6-5.8,33.6-15l17.9,18.1c-13.1,14.1-27.7,22.8-52.4,22.8
	C180.7,136.6,152.8,107.6,152.8,70.9"/>
<rect x="10.9" y="161.5" fill="#808285" width="4" height="22.5"/>
<polygon fill="#808285" points="20.7,161.5 24.4,161.5 36.4,177 36.4,161.5 40.3,161.5 40.3,184 37,184 24.6,167.9 24.6,184 20.7,184 
	"/>
<polygon fill="#808285" points="51.5,165.1 44.3,165.1 44.3,161.5 62.6,161.5 62.6,165.1 55.5,165.1 55.5,183.9 51.5,183.9 "/>
<polygon fill="#808285" points="66.8,161.5 83.5,161.5 83.5,165 70.7,165 70.7,170.8 82,170.8 82,174.4 70.7,174.4 70.7,180.4 
	83.6,180.4 83.6,184 66.8,184 "/>
<path fill="#808285" d="M87.8,161.5h10c2.8,0,5,0.8,6.5,2.3c1.2,1.2,1.9,2.9,1.9,4.9v0.1c0,3.7-2.2,5.9-5.3,6.8l6.1,8.5h-4.7l-5.5-7.8
	h-4.9v7.8h-4V161.5z M97.6,172.6c2.8,0,4.6-1.5,4.6-3.8v-0.1c0-2.4-1.7-3.7-4.7-3.7h-5.8v7.6H97.6z"/>
<polygon fill="#808285" points="110.1,161.5 113.8,161.5 125.8,177 125.8,161.5 129.7,161.5 129.7,184 126.4,184 114,167.9 114,184 
	110.1,184 "/>
<path fill="#808285" d="M142.8,161.3h3.7l9.9,22.7h-4.2l-2.3-5.4h-10.6L137,184h-4.1L142.8,161.3z M148.5,175l-3.9-9l-3.9,9H148.5z"/>
<polygon fill="#808285" points="162.9,165.1 155.7,165.1 155.7,161.5 174,161.5 174,165.1 166.9,165.1 166.9,183.9 162.9,183.9 "/>
<rect x="177.9" y="161.5" fill="#808285" width="4" height="22.5"/>
<path fill="#808285" d="M185.7,172.8L185.7,172.8c0-6.4,4.9-11.7,11.8-11.7c6.9,0,11.7,5.2,11.7,11.6v0.1c0,6.3-4.9,11.6-11.8,11.6
	C190.6,184.3,185.7,179.1,185.7,172.8 M205.1,172.8L205.1,172.8c0-4.4-3.2-8.1-7.6-8.1c-4.5,0-7.6,3.6-7.6,7.9v0.1
	c0,4.4,3.2,8,7.6,8C202,180.7,205.1,177.1,205.1,172.8"/>
<polygon fill="#808285" points="212.9,161.5 216.6,161.5 228.7,177 228.7,161.5 232.5,161.5 232.5,184 229.2,184 216.8,167.9 
	216.8,184 212.9,184 "/>
<path fill="#808285" d="M245.7,161.3h3.7l9.9,22.7H255l-2.3-5.4h-10.6l-2.3,5.4h-4.1L245.7,161.3z M251.3,175l-3.9-9l-3.9,9H251.3z"/>
<polygon fill="#808285" points="262.3,161.5 266.2,161.5 266.2,180.4 278,180.4 278,184 262.3,184 "/>
<path fill="#808285" d="M9.7,206.4L9.7,206.4c0-6.5,4.8-11.7,11.6-11.7c4.1,0,6.7,1.4,8.8,3.5l-2.5,2.9c-1.8-1.7-3.7-2.8-6.3-2.8
	c-4.3,0-7.4,3.5-7.4,7.9v0.1c0,4.4,3.1,8,7.4,8c2.8,0,4.5-1.1,6.5-2.9l2.5,2.6c-2.3,2.4-4.9,4-9.1,4C14.6,217.9,9.7,212.8,9.7,206.4
	"/>
<polygon fill="#808285" points="34.4,195 38.4,195 38.4,204.4 49.1,204.4 49.1,195 53.1,195 53.1,217.5 49.1,217.5 49.1,208.1 
	38.4,208.1 38.4,217.5 34.4,217.5 "/>
<path fill="#808285" d="M66,194.9h3.7l9.9,22.7h-4.2l-2.3-5.4H62.5l-2.3,5.4h-4.1L66,194.9z M71.7,208.6l-3.9-9l-3.9,9H71.7z"/>
<polygon fill="#808285" points="82.6,195 86.8,195 93.7,205.7 100.5,195 104.7,195 104.7,217.5 100.8,217.5 100.8,201.4 93.7,212 
	93.5,212 86.5,201.5 86.5,217.5 82.6,217.5 "/>
<path fill="#808285" d="M109.4,195h10.1c2.6,0,4.6,0.7,5.9,2c1,1,1.5,2.2,1.5,3.7v0.1c0,2.7-1.5,4.1-3.2,5c2.6,0.9,4.5,2.4,4.5,5.5v0.1
	c0,4-3.3,6.2-8.3,6.2h-10.4V195z M122.9,201.4c0-1.8-1.4-2.9-4-2.9h-5.7v6h5.4C121.2,204.5,122.9,203.5,122.9,201.4L122.9,201.4z
	 M119.5,207.9h-6.3v6.2h6.6c2.7,0,4.3-1.1,4.3-3.1v-0.1C124.2,209,122.7,207.9,119.5,207.9"/>
<polygon fill="#808285" points="132.1,195 148.8,195 148.8,198.6 136.1,198.6 136.1,204.4 147.3,204.4 147.3,208 136.1,208 136.1,214 
	148.9,214 148.9,217.5 132.1,217.5 "/>
<path fill="#808285" d="M153.2,195h10c2.8,0,5,0.8,6.5,2.3c1.2,1.2,1.9,2.9,1.9,4.9v0.1c0,3.7-2.2,5.9-5.3,6.8l6.1,8.5h-4.7l-5.5-7.8
	h-4.9v7.8h-4V195z M162.9,206.2c2.8,0,4.6-1.5,4.6-3.8v-0.1c0-2.4-1.7-3.7-4.7-3.7h-5.8v7.6H162.9z"/>
<path fill="#808285" d="M9.7,239.9L9.7,239.9c0-6.4,4.9-11.7,11.8-11.7c6.9,0,11.7,5.2,11.7,11.6v0.1c0,6.3-4.9,11.6-11.8,11.6
	C14.5,251.5,9.7,246.3,9.7,239.9 M29.1,239.9L29.1,239.9c0-4.4-3.2-8.1-7.6-8.1s-7.6,3.6-7.6,7.9v0.1c0,4.4,3.2,8,7.6,8
	C26,247.9,29.1,244.3,29.1,239.9"/>
<polygon fill="#808285" points="37.2,228.6 53.9,228.6 53.9,232.2 41.2,232.2 41.2,238.4 52.5,238.4 52.5,242 41.2,242 41.2,251.1 
	37.2,251.1 "/>
<path fill="#808285" d="M67.3,239.9L67.3,239.9c0-6.5,4.8-11.7,11.6-11.7c4.1,0,6.7,1.4,8.8,3.5l-2.5,2.9c-1.8-1.7-3.7-2.8-6.3-2.8
	c-4.3,0-7.4,3.5-7.4,7.9v0.1c0,4.4,3.1,8,7.4,8c2.8,0,4.5-1.1,6.5-2.9l2.5,2.6c-2.3,2.4-4.9,4-9.1,4
	C72.2,251.5,67.3,246.4,67.3,239.9"/>
<path fill="#808285" d="M90.2,239.9L90.2,239.9c0-6.4,4.9-11.7,11.8-11.7c6.9,0,11.7,5.2,11.7,11.6v0.1c0,6.3-4.9,11.6-11.8,11.6
	C95,251.5,90.2,246.3,90.2,239.9 M109.6,239.9L109.6,239.9c0-4.4-3.2-8.1-7.6-8.1s-7.6,3.6-7.6,7.9v0.1c0,4.4,3.2,8,7.6,8
	C106.5,247.9,109.6,244.3,109.6,239.9"/>
<polygon fill="#808285" points="117.9,228.6 122.1,228.6 128.9,239.3 135.8,228.6 140,228.6 140,251.1 136,251.1 136,235 128.9,245.6 
	128.8,245.6 121.8,235.1 121.8,251.1 117.9,251.1 "/>
<polygon fill="#808285" points="145,228.6 149.2,228.6 156,239.3 162.9,228.6 167.1,228.6 167.1,251.1 163.1,251.1 163.1,235 
	156,245.6 155.9,245.6 148.9,235.1 148.9,251.1 145,251.1 "/>
<polygon fill="#808285" points="171.6,228.6 188.3,228.6 188.3,232.2 175.5,232.2 175.5,238 186.8,238 186.8,241.5 175.5,241.5 
	175.5,247.6 188.4,247.6 188.4,251.1 171.6,251.1 "/>
<path fill="#808285" d="M192.5,228.6h10c2.8,0,5,0.8,6.5,2.3c1.2,1.2,1.9,2.9,1.9,4.9v0.1c0,3.7-2.2,5.9-5.3,6.8l6.1,8.5h-4.7l-5.5-7.8
	h-4.9v7.8h-4V228.6z M202.2,239.8c2.8,0,4.6-1.5,4.6-3.8V236c0-2.4-1.7-3.7-4.7-3.7h-5.8v7.6H202.2z"/>
<path fill="#808285" d="M213.9,239.9L213.9,239.9c0-6.5,4.8-11.7,11.6-11.7c4.1,0,6.7,1.4,8.8,3.5l-2.5,2.9c-1.8-1.7-3.7-2.8-6.3-2.8
	c-4.3,0-7.4,3.5-7.4,7.9v0.1c0,4.4,3.1,8,7.4,8c2.8,0,4.5-1.1,6.5-2.9l2.5,2.6c-2.3,2.4-4.9,4-9.1,4
	C218.8,251.5,213.9,246.4,213.9,239.9"/>
<polygon fill="#808285" points="238.5,228.6 255.1,228.6 255.1,232.2 242.4,232.2 242.4,238 253.7,238 253.7,241.5 242.4,241.5 
	242.4,247.6 255.3,247.6 255.3,251.1 238.5,251.1 "/>
<polygon fill="#0064A8" points="16.3,274.4 10.9,274.4 10.9,271.6 24.6,271.6 24.6,274.4 19.3,274.4 19.3,288.5 16.3,288.5 "/>
<path fill="#0064A8" d="M26.8,270.9h2.9v6.8c0.8-1.2,2-2.2,4-2.2c2.9,0,4.5,1.9,4.5,4.9v8.1h-2.9v-7.2c0-2-1-3.1-2.7-3.1
	c-1.7,0-2.9,1.2-2.9,3.2v7.2h-2.9V270.9z"/>
<path fill="#0064A8" d="M40.6,282.2L40.6,282.2c0-3.7,2.6-6.7,6.2-6.7c4.1,0,6.1,3.2,6.1,6.8c0,0.3,0,0.5,0,0.8h-9.4
	c0.3,2.1,1.8,3.2,3.7,3.2c1.4,0,2.4-0.5,3.4-1.5l1.7,1.5c-1.2,1.4-2.9,2.4-5.2,2.4C43.4,288.8,40.6,286.1,40.6,282.2 M50,281.2
	c-0.2-1.9-1.3-3.4-3.2-3.4c-1.8,0-3,1.4-3.3,3.4H50z"/>
<polygon fill="#0064A8" points="59.1,275.8 62.1,275.8 64.6,284.5 67.5,275.7 70,275.7 72.8,284.5 75.4,275.8 78.3,275.8 74.2,288.6 
	71.5,288.6 68.7,279.9 65.8,288.6 63.2,288.6 "/>
<path fill="#0064A8" d="M78.8,282.2L78.8,282.2c0-3.7,2.9-6.7,6.8-6.7c3.9,0,6.8,3,6.8,6.6v0c0,3.6-2.9,6.6-6.8,6.6
	C81.6,288.8,78.8,285.8,78.8,282.2 M89.4,282.2L89.4,282.2c0-2.3-1.6-4.1-3.9-4.1c-2.3,0-3.8,1.8-3.8,4.1v0c0,2.2,1.6,4.1,3.9,4.1
	C87.9,286.2,89.4,284.4,89.4,282.2"/>
<path fill="#0064A8" d="M94.8,275.8h2.9v2.9c0.8-1.9,2.3-3.2,4.5-3.1v3.1h-0.2c-2.6,0-4.3,1.7-4.3,5v4.8h-2.9V275.8z"/>
<rect x="105.4" y="270.9" fill="#0064A8" width="2.9" height="17.6"/>
<path fill="#0064A8" d="M110.1,282.2L110.1,282.2c0-4.3,2.9-6.7,5.9-6.7c2.1,0,3.4,1,4.3,2.2v-6.8h2.9v17.6h-2.9v-2.1
	c-0.9,1.3-2.3,2.4-4.3,2.4C113,288.8,110.1,286.4,110.1,282.2 M120.4,282.2L120.4,282.2c0-2.5-1.7-4.1-3.7-4.1c-2,0-3.7,1.5-3.7,4.1
	v0c0,2.5,1.7,4.1,3.7,4.1C118.6,286.2,120.4,284.6,120.4,282.2"/>
<path fill="#0064A8" d="M137,286.5v2h-2.9v-17.6h2.9v7c0.9-1.3,2.3-2.4,4.3-2.4c3,0,5.9,2.4,5.9,6.6v0c0,4.2-2.9,6.6-5.9,6.6
	C139.2,288.8,137.9,287.7,137,286.5 M144.3,282.2L144.3,282.2c0-2.5-1.7-4.1-3.6-4.1c-2,0-3.7,1.6-3.7,4.1v0c0,2.4,1.7,4.1,3.7,4.1
	C142.7,286.2,144.3,284.7,144.3,282.2"/>
<path fill="#0064A8" d="M149.2,283.9v-8.1h2.9v7.2c0,2,1,3.1,2.7,3.1c1.7,0,2.9-1.2,2.9-3.1v-7.2h2.9v12.7h-2.9v-2
	c-0.8,1.2-2,2.2-4,2.2C150.8,288.8,149.2,286.8,149.2,283.9"/>
<path fill="#0064A8" d="M162.7,286.8l1.3-2c1.4,1,2.9,1.6,4.2,1.6c1.3,0,2-0.5,2-1.4v0c0-1-1.4-1.3-2.8-1.8c-1.9-0.5-4-1.3-4-3.7v0
	c0-2.4,2-3.9,4.5-3.9c1.6,0,3.3,0.6,4.7,1.4l-1.2,2.1c-1.2-0.7-2.5-1.2-3.6-1.2c-1.1,0-1.8,0.5-1.8,1.3v0c0,0.9,1.4,1.3,2.9,1.8
	c1.9,0.6,4,1.4,4,3.7v0c0,2.7-2.1,4-4.7,4C166.3,288.7,164.3,288.1,162.7,286.8"/>
<path fill="#0064A8" d="M174.9,271.1h3.1v2.8h-3.1V271.1z M175.1,275.8h2.9v12.7h-2.9V275.8z"/>
<path fill="#0064A8" d="M180.8,275.8h2.9v2c0.8-1.2,2-2.2,4-2.2c2.9,0,4.5,1.9,4.5,4.9v8.1h-2.9v-7.2c0-2-1-3.1-2.7-3.1
	c-1.7,0-2.9,1.2-2.9,3.2v7.2h-2.9V275.8z"/>
<path fill="#0064A8" d="M194.6,282.2L194.6,282.2c0-3.7,2.6-6.7,6.2-6.7c4.1,0,6.1,3.2,6.1,6.8c0,0.3,0,0.5,0,0.8h-9.4
	c0.3,2.1,1.8,3.2,3.7,3.2c1.4,0,2.4-0.5,3.4-1.5l1.7,1.5c-1.2,1.4-2.9,2.4-5.2,2.4C197.4,288.8,194.6,286.1,194.6,282.2 M204,281.2
	c-0.2-1.9-1.3-3.4-3.2-3.4c-1.8,0-3,1.4-3.3,3.4H204z"/>
<path fill="#0064A8" d="M208.3,286.8l1.3-2c1.4,1,2.9,1.6,4.2,1.6c1.3,0,2-0.5,2-1.4v0c0-1-1.4-1.3-2.8-1.8c-1.9-0.5-4-1.3-4-3.7v0
	c0-2.4,2-3.9,4.5-3.9c1.6,0,3.3,0.6,4.7,1.4l-1.2,2.1c-1.2-0.7-2.5-1.2-3.6-1.2c-1.1,0-1.8,0.5-1.8,1.3v0c0,0.9,1.4,1.3,2.9,1.8
	c1.9,0.6,4,1.4,4,3.7v0c0,2.7-2.1,4-4.7,4C211.9,288.7,209.9,288.1,208.3,286.8"/>
<path fill="#0064A8" d="M219.4,286.8l1.3-2c1.4,1,2.9,1.6,4.2,1.6c1.3,0,2-0.5,2-1.4v0c0-1-1.4-1.3-2.8-1.8c-1.9-0.5-4-1.3-4-3.7v0
	c0-2.4,2-3.9,4.5-3.9c1.6,0,3.3,0.6,4.7,1.4l-1.2,2.1c-1.2-0.7-2.5-1.2-3.6-1.2c-1.1,0-1.8,0.5-1.8,1.3v0c0,0.9,1.4,1.3,2.9,1.8
	c1.9,0.6,4,1.4,4,3.7v0c0,2.7-2.1,4-4.7,4C223,288.7,221,288.1,219.4,286.8"/>
<path fill="#0064A8" d="M10.7,308.4L10.7,308.4c0-3.7,2.9-6.7,6.8-6.7c3.9,0,6.8,3,6.8,6.6v0c0,3.6-2.9,6.6-6.8,6.6
	C13.6,314.9,10.7,312,10.7,308.4 M21.4,308.4L21.4,308.4c0-2.3-1.6-4.1-3.9-4.1c-2.3,0-3.8,1.8-3.8,4.1v0c0,2.2,1.6,4.1,3.9,4.1
	C19.9,312.4,21.4,310.5,21.4,308.4"/>
<path fill="#0064A8" d="M26.8,301.9h2.9v2.9c0.8-1.9,2.3-3.2,4.5-3.1v3.1H34c-2.6,0-4.3,1.7-4.3,5v4.8h-2.9V301.9z"/>
<path fill="#0064A8" d="M35.7,317l1.1-2.2c1.4,0.8,2.8,1.4,4.5,1.4c2.6,0,4-1.4,4-3.9v-1c-1.1,1.4-2.4,2.3-4.5,2.3c-3,0-5.8-2.2-5.8-6
	v0c0-3.8,2.8-6,5.8-6c2.1,0,3.5,1,4.5,2.2v-1.9h2.9V312c0,2.1-0.6,3.7-1.6,4.8c-1.2,1.2-2.9,1.7-5.2,1.7
	C39.3,318.5,37.4,318,35.7,317 M45.4,307.7L45.4,307.7c0-2.1-1.7-3.5-3.7-3.5c-2,0-3.6,1.4-3.6,3.5v0c0,2.1,1.6,3.5,3.6,3.5
	C43.7,311.1,45.4,309.7,45.4,307.7"/>
<path fill="#0064A8" d="M51.1,311L51.1,311c0-2.8,2.1-4.1,5.3-4.1c1.4,0,2.4,0.2,3.4,0.5V307c0-1.8-1.1-2.8-3.2-2.8
	c-1.4,0-2.5,0.3-3.6,0.8l-0.8-2.3c1.4-0.6,2.8-1,4.8-1c1.9,0,3.3,0.5,4.2,1.4c0.9,0.9,1.4,2.3,1.4,3.9v7.5h-2.8v-1.6
	c-0.9,1-2.2,1.9-4.1,1.9C53.2,314.9,51.1,313.5,51.1,311 M59.8,310.1v-0.9c-0.7-0.3-1.7-0.5-2.9-0.5c-1.9,0-3,0.8-3,2.1v0
	c0,1.2,1.1,1.9,2.5,1.9C58.3,312.8,59.8,311.7,59.8,310.1"/>
<path fill="#0064A8" d="M65.1,301.9H68v2c0.8-1.2,2-2.2,4-2.2c2.9,0,4.5,1.9,4.5,4.9v8.1h-2.9v-7.2c0-2-1-3.1-2.7-3.1
	c-1.7,0-2.9,1.2-2.9,3.2v7.2h-2.9V301.9z"/>
<path fill="#0064A8" d="M79.1,297.2h3.1v2.8h-3.1V297.2z M79.3,301.9h2.9v12.7h-2.9V301.9z"/>
<polygon fill="#0064A8" points="84.4,312.6 91.8,304.3 84.7,304.3 84.7,301.9 95.5,301.9 95.5,303.9 88.2,312.3 95.5,312.3 95.5,314.6 
	84.4,314.6 "/>
<path fill="#0064A8" d="M96.7,311L96.7,311c0-2.8,2.1-4.1,5.3-4.1c1.4,0,2.4,0.2,3.4,0.5V307c0-1.8-1.1-2.8-3.2-2.8
	c-1.4,0-2.5,0.3-3.6,0.8l-0.8-2.3c1.4-0.6,2.8-1,4.8-1c1.9,0,3.3,0.5,4.2,1.4c0.9,0.9,1.4,2.3,1.4,3.9v7.5h-2.8v-1.6
	c-0.9,1-2.2,1.9-4.1,1.9C98.8,314.9,96.7,313.5,96.7,311 M105.4,310.1v-0.9c-0.7-0.3-1.7-0.5-2.9-0.5c-1.9,0-3,0.8-3,2.1v0
	c0,1.2,1.1,1.9,2.5,1.9C104,312.8,105.4,311.7,105.4,310.1"/>
<path fill="#0064A8" d="M112.3,311.1v-6.7h-1.6v-2.5h1.6v-3.5h2.9v3.5h3.4v2.5h-3.4v6.2c0,1.1,0.6,1.6,1.6,1.6c0.7,0,1.2-0.1,1.8-0.4
	v2.4c-0.7,0.4-1.5,0.7-2.6,0.7C113.8,314.9,112.3,313.9,112.3,311.1"/>
<path fill="#0064A8" d="M120.7,297.2h3.1v2.8h-3.1V297.2z M120.8,301.9h2.9v12.7h-2.9V301.9z"/>
<path fill="#0064A8" d="M125.9,308.4L125.9,308.4c0-3.7,2.9-6.7,6.8-6.7c3.9,0,6.8,3,6.8,6.6v0c0,3.6-2.9,6.6-6.8,6.6
	C128.7,314.9,125.9,312,125.9,308.4 M136.5,308.4L136.5,308.4c0-2.3-1.6-4.1-3.9-4.1c-2.3,0-3.8,1.8-3.8,4.1v0
	c0,2.2,1.6,4.1,3.9,4.1C135,312.4,136.5,310.5,136.5,308.4"/>
<path fill="#0064A8" d="M141.4,301.9h2.9v2c0.8-1.2,2-2.2,4-2.2c2.9,0,4.5,1.9,4.5,4.9v8.1H150v-7.2c0-2-1-3.1-2.7-3.1
	c-1.7,0-2.9,1.2-2.9,3.2v7.2h-2.9V301.9z"/>
</svg>
