<svg width="570" height="190" viewBox="0 0 570 190" xmlns="http://www.w3.org/2000/svg">
<title>ICC</title>
<g>
	<path fill="#0064A8" d="M120.1,111.7c-22.4,0-40.6-18.5-40.6-41.2c0-22.7,18.2-41.2,40.6-41.2c22.4,0,40.6,18.5,40.6,41.2
		C160.7,93.2,142.5,111.7,120.1,111.7z M96.1,102.1c6.1,4.8,13.7,7.8,21.9,8.3c-5.8-3.3-10.6-8.4-14.2-14.5
		C101,97.5,98.4,99.6,96.1,102.1z M136.7,95.7c-3.5,6.2-8.4,11.3-14.2,14.6c8.2-0.5,15.8-3.6,21.9-8.4
		C142.1,99.4,139.5,97.4,136.7,95.7z M104.9,95.2c3.6,6.3,8.6,11.4,14.6,14.6V91.3C114.4,91.5,109.4,92.8,104.9,95.2z M120.9,91.3
		v18.4c6.1-3.2,11.1-8.3,14.7-14.7C131.1,92.7,126,91.4,120.9,91.3z M80.8,71.1c0.2,12.1,5.7,23,14.3,30.2c2.4-2.6,5.1-4.8,8.1-6.6
		c-3.7-6.9-5.8-15-5.8-23.6H80.8z M137.3,94.6c3,1.7,5.7,3.9,8.1,6.5c8.5-7.2,13.9-18,14.1-30h-16.3C143,79.7,140.9,87.8,137.3,94.6
		z M98.6,71.1c0.1,8.4,2.1,16.3,5.7,23c4.7-2.5,9.9-3.9,15.3-4v-19L98.6,71.1z M120.9,90.1c5.4,0.1,10.6,1.5,15.3,3.9
		c3.5-6.6,5.6-14.5,5.6-22.9l-20.9,0V90.1z M143.1,69.8h16.3c-0.2-12-5.7-22.7-14.1-29.9c-2.4,2.6-5.1,4.7-8.1,6.5
		C140.9,53.2,143,61.2,143.1,69.8z M120.9,69.8l20.9,0c-0.1-8.3-2.1-16.2-5.7-22.8c-4.7,2.5-9.9,3.8-15.2,3.9V69.8z M98.6,69.8
		l20.9,0V50.9c-5.4-0.1-10.6-1.5-15.2-4C100.8,53.6,98.8,61.4,98.6,69.8z M80.8,69.8h16.5c0.1-8.6,2.2-16.7,5.9-23.5
		c-3-1.7-5.7-3.9-8.1-6.5C86.6,46.9,81.1,57.7,80.8,69.8z M120.9,31.3v18.3c5.1-0.1,10.2-1.4,14.6-3.7
		C131.9,39.6,126.9,34.5,120.9,31.3z M105,45.8c4.5,2.4,9.4,3.7,14.6,3.8V31.3C113.6,34.5,108.6,39.5,105,45.8z M122.5,30.7
		c5.8,3.3,10.6,8.4,14.2,14.5c2.8-1.6,5.4-3.7,7.7-6.1C138.2,34.3,130.7,31.2,122.5,30.7z M96.2,38.9c2.3,2.5,4.9,4.6,7.7,6.2
		c3.5-6.1,8.3-11.2,14.1-14.5C109.8,31.2,102.3,34.2,96.2,38.9z"/>
	<rect x="10.4" y="6.7" fill="#0064A8" width="28.1" height="127.8"/>
	<path fill="#0064A8" d="M149.2,98.1c-9,7.7-17.6,12.6-30.9,12.6c-21.9,0-37.1-18.3-37.1-40.2v-0.4c0-21.9,15.5-39.8,37.1-39.8
		c12,0,21.5,4.8,30.8,12.8c3.5-8.8,8.6-16.7,15.1-23.2c-11-9.3-24.7-15.5-45.7-15.5c-39.2,0-66.6,29.8-66.6,66.1v0.4
		c0,36.7,27.9,65.7,65.5,65.7c20.7,0,34.3-6.2,45.9-16.5C157.4,113.8,152.6,106.3,149.2,98.1"/>
	<path fill="#0064A8" d="M152.8,70.9v-0.4c0-36.3,27.4-66.1,66.6-66.1c24.1,0,38.5,8,50.4,19.7l-17.9,20.6
		c-9.9-8.9-19.9-14.4-32.7-14.4c-21.5,0-37,17.9-37,39.8v0.4c0,21.9,15.1,40.2,37,40.2c14.6,0,23.6-5.8,33.6-15l17.9,18.1
		c-13.1,14.1-27.7,22.8-52.4,22.8C180.7,136.6,152.8,107.6,152.8,70.9"/>
	<rect x="289.6" y="24.1" fill="#808285" width="4" height="22.5"/>
	<polygon fill="#808285" points="299.4,24.1 303.1,24.1 315.2,39.7 315.2,24.1 319,24.1 319,46.6 315.7,46.6 303.3,30.6 303.3,46.6 
		299.4,46.6 	"/>
	<polygon fill="#808285" points="330.2,27.8 323.1,27.8 323.1,24.1 341.3,24.1 341.3,27.8 334.2,27.8 334.2,46.6 330.2,46.6 	"/>
	<polygon fill="#808285" points="345.5,24.1 362.2,24.1 362.2,27.6 349.4,27.6 349.4,33.5 360.7,33.5 360.7,37 349.4,37 349.4,43.1 
		362.3,43.1 362.3,46.6 345.5,46.6 	"/>
	<path fill="#808285" d="M366.5,24.1h10c2.8,0,5,0.8,6.5,2.3c1.2,1.2,1.9,2.9,1.9,4.9v0.1c0,3.7-2.2,5.9-5.3,6.8l6.1,8.5H381l-5.5-7.8
		h-4.9v7.8h-4V24.1z M376.3,35.3c2.8,0,4.6-1.5,4.6-3.8v-0.1c0-2.4-1.7-3.7-4.7-3.7h-5.8v7.6H376.3z"/>
	<polygon fill="#808285" points="388.8,24.1 392.5,24.1 404.5,39.7 404.5,24.1 408.4,24.1 408.4,46.6 405.1,46.6 392.7,30.6 
		392.7,46.6 388.8,46.6 	"/>
	<path fill="#808285" d="M421.5,23.9h3.7l9.9,22.7h-4.2l-2.3-5.4H418l-2.3,5.4h-4.1L421.5,23.9z M427.2,37.7l-3.9-9l-3.9,9H427.2z"/>
	<polygon fill="#808285" points="441.6,27.8 434.4,27.8 434.4,24.1 452.7,24.1 452.7,27.8 445.6,27.8 445.6,46.6 441.6,46.6 	"/>
	<rect x="456.6" y="24.1" fill="#808285" width="4" height="22.5"/>
	<path fill="#808285" d="M464.5,35.4L464.5,35.4c0-6.4,4.9-11.7,11.8-11.7c6.9,0,11.7,5.2,11.7,11.6v0.1c0,6.3-4.9,11.6-11.8,11.6
		C469.3,47,464.5,41.7,464.5,35.4 M483.8,35.4L483.8,35.4c0-4.4-3.2-8.1-7.6-8.1s-7.6,3.6-7.6,7.9v0.1c0,4.4,3.2,8,7.6,8
		C480.7,43.3,483.8,39.8,483.8,35.4"/>
	<polygon fill="#808285" points="491.6,24.1 495.3,24.1 507.4,39.7 507.4,24.1 511.3,24.1 511.3,46.6 507.9,46.6 495.5,30.6 
		495.5,46.6 491.6,46.6 	"/>
	<path fill="#808285" d="M524.4,23.9h3.7l9.9,22.7h-4.2l-2.3-5.4h-10.6l-2.3,5.4h-4.1L524.4,23.9z M530,37.7l-3.9-9l-3.9,9H530z"/>
	<polygon fill="#808285" points="541,24.1 544.9,24.1 544.9,43 556.8,43 556.8,46.6 541,46.6 	"/>
	<path fill="#808285" d="M288.4,69L288.4,69c0-6.5,4.8-11.7,11.6-11.7c4.1,0,6.7,1.4,8.8,3.5l-2.5,2.9c-1.8-1.7-3.7-2.8-6.3-2.8
		c-4.3,0-7.4,3.5-7.4,7.9v0.1c0,4.4,3.1,8,7.4,8c2.8,0,4.5-1.1,6.5-2.9l2.5,2.6c-2.3,2.4-4.9,4-9.1,4
		C293.3,80.6,288.4,75.5,288.4,69"/>
	<polygon fill="#808285" points="313.1,57.7 317.1,57.7 317.1,67 327.8,67 327.8,57.7 331.8,57.7 331.8,80.2 327.8,80.2 327.8,70.7 
		317.1,70.7 317.1,80.2 313.1,80.2 	"/>
	<path fill="#808285" d="M344.7,57.5h3.7l9.9,22.7h-4.2l-2.3-5.4h-10.6l-2.3,5.4h-4.1L344.7,57.5z M350.4,71.3l-3.9-9l-3.9,9H350.4z"/>
	<polygon fill="#808285" points="361.3,57.7 365.5,57.7 372.4,68.3 379.2,57.7 383.4,57.7 383.4,80.2 379.5,80.2 379.5,64.1 
		372.4,74.7 372.3,74.7 365.2,64.1 365.2,80.2 361.3,80.2 	"/>
	<path fill="#808285" d="M388.1,57.7h10.1c2.6,0,4.6,0.7,5.9,2c1,1,1.5,2.2,1.5,3.7v0.1c0,2.7-1.5,4.1-3.2,5c2.6,0.9,4.5,2.4,4.5,5.5
		V74c0,4-3.3,6.2-8.3,6.2h-10.4V57.7z M401.6,64.1c0-1.8-1.4-2.9-4-2.9H392v6h5.4C399.9,67.2,401.6,66.2,401.6,64.1L401.6,64.1z
		 M398.3,70.5H392v6.2h6.6c2.7,0,4.3-1.1,4.3-3.1v-0.1C402.9,71.6,401.4,70.5,398.3,70.5"/>
	<polygon fill="#808285" points="410.8,57.7 427.5,57.7 427.5,61.2 414.8,61.2 414.8,67.1 426.1,67.1 426.1,70.6 414.8,70.6 
		414.8,76.7 427.7,76.7 427.7,80.2 410.8,80.2 	"/>
	<path fill="#808285" d="M431.9,57.7h10c2.8,0,5,0.8,6.5,2.3c1.2,1.2,1.9,2.9,1.9,4.9v0.1c0,3.7-2.2,5.9-5.3,6.8l6.1,8.5h-4.7l-5.5-7.8
		h-4.9v7.8h-4V57.7z M441.6,68.8c2.8,0,4.6-1.5,4.6-3.8V65c0-2.4-1.7-3.7-4.7-3.7h-5.8v7.6H441.6z"/>
	<path fill="#808285" d="M288.4,102.6L288.4,102.6c0-6.4,4.9-11.7,11.8-11.7c6.9,0,11.7,5.2,11.7,11.6v0.1c0,6.3-4.9,11.6-11.8,11.6
		C293.2,114.2,288.4,108.9,288.4,102.6 M307.8,102.6L307.8,102.6c0-4.4-3.2-8.1-7.6-8.1s-7.6,3.6-7.6,7.9v0.1c0,4.4,3.2,8,7.6,8
		C304.7,110.5,307.8,107,307.8,102.6"/>
	<polygon fill="#808285" points="315.9,91.3 332.7,91.3 332.7,94.9 319.9,94.9 319.9,101 331.2,101 331.2,104.6 319.9,104.6 
		319.9,113.8 315.9,113.8 	"/>
	<path fill="#808285" d="M346,102.6L346,102.6c0-6.5,4.8-11.7,11.6-11.7c4.1,0,6.7,1.4,8.8,3.5l-2.5,2.9c-1.8-1.7-3.7-2.8-6.3-2.8
		c-4.3,0-7.4,3.5-7.4,7.9v0.1c0,4.4,3.1,8,7.4,8c2.8,0,4.5-1.1,6.5-2.9l2.5,2.6c-2.3,2.4-4.9,4-9.1,4
		C350.9,114.2,346,109.1,346,102.6"/>
	<path fill="#808285" d="M368.9,102.6L368.9,102.6c0-6.4,4.9-11.7,11.8-11.7c6.9,0,11.7,5.2,11.7,11.6v0.1c0,6.3-4.9,11.6-11.8,11.6
		C373.8,114.2,368.9,108.9,368.9,102.6 M388.3,102.6L388.3,102.6c0-4.4-3.2-8.1-7.6-8.1s-7.6,3.6-7.6,7.9v0.1c0,4.4,3.2,8,7.6,8
		C385.2,110.5,388.3,107,388.3,102.6"/>
	<polygon fill="#808285" points="396.6,91.3 400.8,91.3 407.7,101.9 414.5,91.3 418.7,91.3 418.7,113.8 414.8,113.8 414.8,97.6 
		407.7,108.3 407.5,108.3 400.5,97.7 400.5,113.8 396.6,113.8 	"/>
	<polygon fill="#808285" points="423.7,91.3 427.9,91.3 434.8,101.9 441.6,91.3 445.8,91.3 445.8,113.8 441.9,113.8 441.9,97.6 
		434.8,108.3 434.6,108.3 427.6,97.7 427.6,113.8 423.7,113.8 	"/>
	<polygon fill="#808285" points="450.3,91.3 467,91.3 467,94.8 454.3,94.8 454.3,100.7 465.5,100.7 465.5,104.2 454.3,104.2 
		454.3,110.2 467.1,110.2 467.1,113.8 450.3,113.8 	"/>
	<path fill="#808285" d="M471.2,91.3h10c2.8,0,5,0.8,6.5,2.3c1.2,1.2,1.9,2.9,1.9,4.9v0.1c0,3.7-2.2,5.9-5.3,6.8l6.1,8.5h-4.7l-5.5-7.8
		h-4.9v7.8h-4V91.3z M480.9,102.4c2.8,0,4.6-1.5,4.6-3.8v-0.1c0-2.4-1.7-3.7-4.7-3.7h-5.8v7.6H480.9z"/>
	<path fill="#808285" d="M492.6,102.6L492.6,102.6c0-6.5,4.8-11.7,11.6-11.7c4.1,0,6.7,1.4,8.8,3.5l-2.5,2.9c-1.8-1.7-3.7-2.8-6.3-2.8
		c-4.3,0-7.4,3.5-7.4,7.9v0.1c0,4.4,3.1,8,7.4,8c2.8,0,4.5-1.1,6.5-2.9l2.5,2.6c-2.3,2.4-4.9,4-9.1,4
		C497.5,114.2,492.6,109.1,492.6,102.6"/>
	<polygon fill="#808285" points="517.2,91.3 533.9,91.3 533.9,94.8 521.1,94.8 521.1,100.7 532.4,100.7 532.4,104.2 521.1,104.2 
		521.1,110.2 534,110.2 534,113.8 517.2,113.8 	"/>
	<polygon fill="#0064A8" points="18.8,156.7 11.7,156.7 11.7,153 30,153 30,156.7 22.8,156.7 22.8,175.5 18.8,175.5 	"/>
	<path fill="#0064A8" d="M32.9,152h3.9v9.1c1.1-1.6,2.7-3,5.3-3c3.8,0,6,2.6,6,6.5v10.8h-3.9v-9.6c0-2.6-1.3-4.1-3.6-4.1
		c-2.3,0-3.8,1.6-3.8,4.2v9.6h-3.9V152z"/>
	<path fill="#0064A8" d="M51.2,167.1L51.2,167.1c0-4.9,3.4-8.9,8.3-8.9c5.4,0,8.1,4.2,8.1,9.1c0,0.4,0,0.7-0.1,1.1H55.1
		c0.4,2.8,2.4,4.3,4.9,4.3c1.9,0,3.2-0.7,4.6-2l2.3,2c-1.6,1.9-3.8,3.2-6.9,3.2C55,175.9,51.2,172.3,51.2,167.1 M63.8,165.8
		c-0.3-2.5-1.7-4.5-4.3-4.5c-2.4,0-4.1,1.8-4.4,4.5H63.8z"/>
	<polygon fill="#0064A8" points="75.9,158.5 79.9,158.5 83.3,170.2 87.1,158.5 90.4,158.5 94.2,170.2 97.7,158.5 101.6,158.5 96,175.6 
		92.5,175.6 88.7,164 84.9,175.6 81.4,175.6 	"/>
	<path fill="#0064A8" d="M102.2,167.1L102.2,167.1c0-4.9,3.9-8.9,9.1-8.9c5.2,0,9,4,9,8.8v0.1c0,4.8-3.9,8.8-9.1,8.8
		C106,175.9,102.2,171.9,102.2,167.1 M116.4,167.1L116.4,167.1c0-3.1-2.2-5.5-5.2-5.5c-3.1,0-5.1,2.4-5.1,5.4v0.1
		c0,3,2.2,5.4,5.2,5.4C114.4,172.5,116.4,170,116.4,167.1"/>
	<path fill="#0064A8" d="M123.6,158.5h3.9v3.8c1.1-2.5,3-4.3,6-4.1v4.1h-0.2c-3.4,0-5.8,2.2-5.8,6.7v6.5h-3.9V158.5z"/>
	<rect x="137.7" y="152" fill="#0064A8" width="3.9" height="23.5"/>
	<path fill="#0064A8" d="M143.9,167L143.9,167c0-5.7,3.8-8.9,7.9-8.9c2.8,0,4.6,1.4,5.8,3V152h3.9v23.5h-3.9v-2.8
		c-1.3,1.8-3,3.2-5.8,3.2C147.8,175.9,143.9,172.7,143.9,167 M157.6,167L157.6,167c0-3.3-2.3-5.5-4.9-5.5c-2.7,0-4.9,2.1-4.9,5.4
		v0.1c0,3.3,2.3,5.4,4.9,5.4C155.3,172.5,157.6,170.3,157.6,167"/>
	<path fill="#0064A8" d="M179.8,172.9v2.6h-3.9V152h3.9v9.3c1.3-1.8,3-3.2,5.8-3.2c4,0,7.9,3.1,7.9,8.8v0.1c0,5.6-3.9,8.8-7.9,8.8
		C182.8,175.9,181,174.4,179.8,172.9 M189.5,167L189.5,167c0-3.3-2.2-5.5-4.9-5.5c-2.6,0-4.9,2.2-4.9,5.4v0.1c0,3.2,2.3,5.4,4.9,5.4
		C187.4,172.5,189.5,170.4,189.5,167"/>
	<path fill="#0064A8" d="M196,169.3v-10.8h3.9v9.6c0,2.6,1.3,4.1,3.6,4.1c2.2,0,3.8-1.5,3.8-4.2v-9.6h3.9v17h-3.9v-2.6
		c-1.1,1.6-2.7,3-5.3,3C198.2,175.9,196,173.3,196,169.3"/>
	<path fill="#0064A8" d="M214.1,173.3l1.7-2.6c1.9,1.4,3.8,2.1,5.6,2.1c1.7,0,2.6-0.7,2.6-1.8v-0.1c0-1.3-1.8-1.8-3.8-2.4
		c-2.5-0.7-5.3-1.7-5.3-5v-0.1c0-3.2,2.7-5.2,6-5.2c2.1,0,4.4,0.7,6.2,1.9l-1.5,2.8c-1.6-1-3.4-1.6-4.8-1.6c-1.5,0-2.4,0.7-2.4,1.7
		v0.1c0,1.3,1.8,1.8,3.8,2.4c2.5,0.8,5.3,1.9,5.3,4.9v0.1c0,3.6-2.8,5.3-6.3,5.3C218.9,175.8,216.2,175,214.1,173.3"/>
	<path fill="#0064A8" d="M230.4,152.2h4.2v3.7h-4.2V152.2z M230.5,158.5h3.9v17h-3.9V158.5z"/>
	<path fill="#0064A8" d="M238.2,158.5h3.9v2.6c1.1-1.6,2.7-3,5.3-3c3.8,0,6,2.6,6,6.5v10.8h-3.9v-9.6c0-2.6-1.3-4.1-3.6-4.1
		c-2.3,0-3.8,1.6-3.8,4.2v9.6h-3.9V158.5z"/>
	<path fill="#0064A8" d="M256.6,167.1L256.6,167.1c0-4.9,3.4-8.9,8.3-8.9c5.4,0,8.1,4.2,8.1,9.1c0,0.4,0,0.7-0.1,1.1h-12.5
		c0.4,2.8,2.4,4.3,4.9,4.3c1.9,0,3.2-0.7,4.6-2l2.3,2c-1.6,1.9-3.8,3.2-6.9,3.2C260.4,175.9,256.6,172.3,256.6,167.1 M269.1,165.8
		c-0.3-2.5-1.7-4.5-4.3-4.5c-2.4,0-4.1,1.8-4.4,4.5H269.1z"/>
	<path fill="#0064A8" d="M274.9,173.3l1.7-2.6c1.9,1.4,3.8,2.1,5.6,2.1c1.7,0,2.6-0.7,2.6-1.8v-0.1c0-1.3-1.8-1.8-3.8-2.4
		c-2.5-0.7-5.3-1.7-5.3-5v-0.1c0-3.2,2.7-5.2,6-5.2c2.1,0,4.4,0.7,6.2,1.9l-1.5,2.8c-1.6-1-3.4-1.6-4.8-1.6c-1.5,0-2.4,0.7-2.4,1.7
		v0.1c0,1.3,1.8,1.8,3.8,2.4c2.5,0.8,5.3,1.9,5.3,4.9v0.1c0,3.6-2.8,5.3-6.3,5.3C279.7,175.8,277,175,274.9,173.3"/>
	<path fill="#0064A8" d="M289.7,173.3l1.7-2.6c1.9,1.4,3.8,2.1,5.6,2.1c1.7,0,2.6-0.7,2.6-1.8v-0.1c0-1.3-1.8-1.8-3.8-2.4
		c-2.5-0.7-5.3-1.7-5.3-5v-0.1c0-3.2,2.7-5.2,6-5.2c2.1,0,4.4,0.7,6.2,1.9l-1.5,2.8c-1.6-1-3.4-1.6-4.8-1.6c-1.5,0-2.4,0.7-2.4,1.7
		v0.1c0,1.3,1.8,1.8,3.8,2.4c2.5,0.8,5.3,1.9,5.3,4.9v0.1c0,3.6-2.8,5.3-6.3,5.3C294.5,175.8,291.8,175,289.7,173.3"/>
	<path fill="#0064A8" d="M313.3,167.1L313.3,167.1c0-4.9,3.9-8.9,9.1-8.9c5.2,0,9,4,9,8.8v0.1c0,4.8-3.9,8.8-9.1,8.8
		C317.1,175.9,313.3,171.9,313.3,167.1 M327.5,167.1L327.5,167.1c0-3.1-2.2-5.5-5.2-5.5c-3.1,0-5.1,2.4-5.1,5.4v0.1
		c0,3,2.2,5.4,5.2,5.4C325.5,172.5,327.5,170,327.5,167.1"/>
	<path fill="#0064A8" d="M334.7,158.5h3.9v3.8c1.1-2.5,3-4.3,6-4.1v4.1h-0.2c-3.4,0-5.8,2.2-5.8,6.7v6.5h-3.9V158.5z"/>
	<path fill="#0064A8" d="M346.7,178.7l1.4-2.9c1.8,1.1,3.7,1.8,6,1.8c3.5,0,5.4-1.8,5.4-5.2V171c-1.4,1.8-3.2,3.1-6,3.1
		c-4,0-7.7-3-7.7-7.9v-0.1c0-5,3.8-8,7.7-8c2.9,0,4.6,1.3,5.9,2.9v-2.5h3.9V172c0,2.9-0.7,5-2.2,6.4c-1.5,1.5-3.9,2.3-7,2.3
		C351.5,180.7,348.9,180,346.7,178.7 M359.6,166.2L359.6,166.2c0-2.8-2.3-4.7-5-4.7c-2.7,0-4.8,1.9-4.8,4.7v0.1
		c0,2.8,2.2,4.7,4.8,4.7C357.3,170.8,359.6,168.9,359.6,166.2"/>
	<path fill="#0064A8" d="M367.2,170.6L367.2,170.6c0-3.7,2.9-5.5,7-5.5c1.9,0,3.2,0.3,4.6,0.7v-0.4c0-2.4-1.5-3.7-4.2-3.7
		c-1.9,0-3.3,0.4-4.8,1.1l-1-3.1c1.9-0.8,3.7-1.4,6.4-1.4c2.5,0,4.4,0.7,5.6,1.9c1.3,1.2,1.8,3,1.8,5.2v10.1h-3.8v-2.1
		c-1.2,1.4-2.9,2.5-5.5,2.5C370,175.9,367.2,174,367.2,170.6 M378.8,169.4v-1.2c-1-0.4-2.3-0.7-3.9-0.7c-2.5,0-4,1.1-4,2.8v0.1
		c0,1.6,1.4,2.6,3.3,2.6C376.8,173,378.8,171.5,378.8,169.4"/>
	<path fill="#0064A8" d="M385.9,158.5h3.9v2.6c1.1-1.6,2.7-3,5.3-3c3.8,0,6,2.6,6,6.5v10.8h-3.9v-9.6c0-2.6-1.3-4.1-3.6-4.1
		c-2.3,0-3.8,1.6-3.8,4.2v9.6h-3.9V158.5z"/>
	<path fill="#0064A8" d="M404.6,152.2h4.2v3.7h-4.2V152.2z M404.7,158.5h3.9v17h-3.9V158.5z"/>
	<polygon fill="#0064A8" points="411.6,172.8 421.4,161.7 412,161.7 412,158.5 426.4,158.5 426.4,161.2 416.6,172.3 426.4,172.3 
		426.4,175.5 411.6,175.5 	"/>
	<path fill="#0064A8" d="M428,170.6L428,170.6c0-3.7,2.9-5.5,7-5.5c1.9,0,3.2,0.3,4.6,0.7v-0.4c0-2.4-1.5-3.7-4.2-3.7
		c-1.9,0-3.3,0.4-4.8,1.1l-1-3.1c1.9-0.8,3.7-1.4,6.4-1.4c2.5,0,4.4,0.7,5.6,1.9c1.3,1.2,1.8,3,1.8,5.2v10.1h-3.8v-2.1
		c-1.2,1.4-2.9,2.5-5.5,2.5C430.8,175.9,428,174,428,170.6 M439.6,169.4v-1.2c-1-0.4-2.3-0.7-3.9-0.7c-2.5,0-4,1.1-4,2.8v0.1
		c0,1.6,1.4,2.6,3.3,2.6C437.7,173,439.6,171.5,439.6,169.4"/>
	<path fill="#0064A8" d="M448.8,170.8v-8.9h-2.2v-3.3h2.2v-4.7h3.9v4.7h4.6v3.3h-4.6v8.3c0,1.5,0.8,2.1,2.1,2.1c0.9,0,1.6-0.2,2.4-0.6
		v3.2c-1,0.5-2,0.9-3.5,0.9C450.8,175.8,448.8,174.5,448.8,170.8"/>
	<path fill="#0064A8" d="M460,152.2h4.2v3.7H460V152.2z M460.1,158.5h3.9v17h-3.9V158.5z"/>
	<path fill="#0064A8" d="M466.9,167.1L466.9,167.1c0-4.9,3.9-8.9,9.1-8.9c5.2,0,9,4,9,8.8v0.1c0,4.8-3.9,8.8-9.1,8.8
		C470.7,175.9,466.9,171.9,466.9,167.1 M481.1,167.1L481.1,167.1c0-3.1-2.2-5.5-5.2-5.5c-3.1,0-5.1,2.4-5.1,5.4v0.1
		c0,3,2.2,5.4,5.2,5.4C479.1,172.5,481.1,170,481.1,167.1"/>
	<path fill="#0064A8" d="M487.6,158.5h3.9v2.6c1.1-1.6,2.7-3,5.3-3c3.8,0,6,2.6,6,6.5v10.8H499v-9.6c0-2.6-1.3-4.1-3.6-4.1
		c-2.3,0-3.8,1.6-3.8,4.2v9.6h-3.9V158.5z"/>
</g>
</svg>
